<?xml version="1.0" encoding="utf-8"?>
<!-- Generator: Adobe Illustrator 22.1.0, SVG Export Plug-In . SVG Version: 6.00 Build 0)  -->
<svg version="1.1" id="レイヤー_1" xmlns="http://www.w3.org/2000/svg" xmlns:xlink="http://www.w3.org/1999/xlink" x="0px"
	 y="0px" viewBox="0 0 201.3 62.4" style="enable-background:new 0 0 201.3 62.4;" xml:space="preserve">
<style type="text/css">
	.st0{fill:#FBFBFB;}
</style>
<g>
	<path class="st0" d="M23.2,13.6c0-0.6,0-1.3,0-1.9c0-0.6,0-1.1,0-1.6c0-1.7,0-3.2-0.1-4.9c-0.1-1.5-0.5-2.7-1.2-3.6
		c-1-1.4-2.7-1.6-3.6-1.6c-1.2,0-2.4,0.4-3.6,0.8c-0.8,0.4-1.6,0.6-2.5,0.9c-0.3,0.1-0.7,0.2-1,0.3c-2.2,0.7-4.4,2.3-6,4.3
		c0,0,0,0,0-0.1c0.1-1,0.3-2.3-0.2-3.1C4.6,2.7,4.1,2.6,3.6,2.4c-0.1,0-0.2-0.1-0.3-0.1C3,2.3,2.7,2.2,2.5,2.1C2.2,2,2,2,1.7,1.9
		c-0.4,0-1,0.2-1.2,1.2c0,0.7,0.5,1.2,1.2,1.4c0.6,0.1,1,0.2,1.1,0.8c0.2,0.6,0.2,1.2,0.2,1.7c0,2,0,4,0,5.9c0,2.6,0,5.2,0.1,7.8
		c0.2,4.9,0.1,9.8,0.1,14.5c0,3.2,0,6.5,0,9.7c0,0.8,0,1.5,0,2.3c0,1.6,0,3.2,0,4.7c0,1.2,0,2.5-0.1,3.7c0,0.6,0,1.2,0,1.8
		c0,0.6,0.1,1.3,0,1.9c-0.4-0.3-0.8-0.4-1.4-0.3C1,59.2,0.2,59.9,0,60.6c-0.1,0.5,0.1,1,0.6,1.3C1,62.2,1.5,62.3,2,62.3
		c0.2,0,0.4,0,0.5,0.1c0.1,0,0.3,0,0.4,0c0.8,0,1.5-0.3,1.9-1C5.1,60.8,5,60,5,59.4c0-0.2,0-0.4,0-0.6C5,58.4,5,58,5,57.6
		c0-0.4,0.1-0.8,0.1-1.2v-4.5c0.1-1.6,0-3.2,0-4.8c0-0.8,0-1.6,0-2.4c0.1-1.8,0-3.6,0-5.4c0-0.9,0-1.8,0-2.7c0-0.6,0-1.1,0-1.7
		c0-1.2,0-2.4,0-3.5c-0.1-1-0.1-2.1,0-3.1c0-0.7,0.1-1.3,0-2c2.6,3.4,7.6,4.8,11.4,3c2.2-1,3.9-2.7,5.1-4.9c0.5-0.9,1-2,1.3-3.4
		c0.2-1,0.2-1.9,0.2-2.8c0-0.2,0-0.5,0-0.7C23.2,16.1,23.2,14.8,23.2,13.6z M21.1,15.2c0.1,0.9,0,1.8-0.1,2.7c0,0.3-0.1,0.6-0.1,0.9
		c0,0.2,0,0.4,0,0.6c-0.1,1.1-0.1,2.1-0.6,3.1c-0.7,2.1-2.6,4-4.8,4.9C13.7,28.2,11,28,8.9,27c-1.3-0.7-3.6-2.4-3.8-5.2l0-0.1
		c-0.1-2.1-0.2-4-0.1-6c0-0.6,0-1.3,0-1.9c0-1.7,0-3.4,0.7-5c0.9-1.8,2.7-3.5,4.9-4.6c1.2-0.6,2.2-1,3.2-1.4l0.2-0.1
		C14.8,2.3,15.7,2,16.7,2c0.2,0,0.4,0,0.6,0c1.7,0.2,2.7,0.9,3.2,2.3c0.6,1.1,0.7,2.4,0.7,3.7c0,0.6,0,1.2,0,1.8
		c0,0.6,0.1,1.3,0.1,2c0,0.4,0,0.9-0.1,1.3C21.1,13.8,21.1,14.5,21.1,15.2z"/>
	<path class="st0" d="M83.3,52.4c-0.3-0.4-0.6-0.7-0.9-1.1c0,0,0,0,0,0c-0.2-0.1-0.3-0.2-0.4-0.4c-0.2-0.2-0.4-0.4-0.7-0.5
		c-0.2-0.1-0.4-0.2-0.5-0.2c-0.4-0.1-0.5-0.2-0.6-0.5c-0.1-0.3,0-0.6,0-1c0-0.2,0-0.3,0-0.5c0-0.3,0-0.5-0.1-0.8c0-0.3,0-0.5,0-0.8
		c0-0.5,0-1.1,0-1.6c0-1,0-2.1,0-3.2c0-2,0-4-0.1-5.9c-0.1-1.7-0.2-3.3-0.2-4.9c0-0.5,0-1-0.1-1.5c0-0.5-0.1-1-0.1-1.5
		c0-0.4,0-0.8-0.1-1.2c0-0.6,0-1.2-0.1-1.8c-0.4-2.3-2.2-4.2-4.4-4.7c-3.6-0.8-7.5,2.1-9.4,5.2c-0.1,0.2-0.5,1-0.3,1.5
		c0.1,0.2,0.3,0.3,0.6,0.4c0.9,0.1,1.5-0.8,2.1-1.5c0.1-0.2,0.3-0.3,0.4-0.5c0.7-0.9,2.2-2.4,3.9-3.1c2.1-0.8,4.1,0,5.1,2.1
		c0.4,0.8,0.6,1.7,0.7,2.6c0,0.1,0,0.3,0,0.4c0,0.5,0,1.1-0.1,1.5c-0.1,0.3-0.5,0.4-1,0.5c-0.1,0-0.3,0-0.4,0.1c-1,0.2-2,0.6-3,1
		c-1,0.4-1.9,0.8-2.9,1.1c-1,0.3-2,0.7-2.9,1.1c-1.7,0.6-3.1,1.2-4.6,2.2c-0.9,0.7-1.7,1.5-2.1,2.3c-0.5,0.8-0.6,1.6-0.7,2.5
		c0,0.3-0.1,0.5-0.1,0.8c-0.3,1.7,0.1,3.7,1.1,6c0.4,0.9,0.9,1.5,1.5,2.2c0.1,0.1,0.2,0.2,0.3,0.3c0.8,0.9,1.6,1.6,2.6,2
		c3.7,1.6,8.4,0.5,11.4-2.7c0.2-0.2,0.3-0.4,0.5-0.6c0.2-0.2,0.5-0.5,0.7-0.8c-0.1,0.8-0.1,1.7-0.1,2.5l0,0.2c0,0.7,0,1.4,0.8,1.7
		c0.2,0.1,0.4,0.1,0.6,0.2c0.3,0.1,0.6,0.1,0.9,0.3c0.2,0.1,0.4,0.2,0.5,0.4c0.3,0.2,0.6,0.4,0.9,0.5c0.3,0.1,0.6,0.2,0.9,0.3
		c0.3,0.1,0.6,0.1,0.8,0.2c0,0,0,0,0.1,0c0,0,0.1,0,0.1-0.1c0-0.1,0-0.1,0-0.2C83.6,52.9,83.5,52.6,83.3,52.4z M78,40.1
		c0,0.2,0,0.4,0,0.6c0,0.8,0,1.6-0.2,2.4c-0.5,1.8-1.6,3.5-3.2,4.6c-3.1,2.3-7.6,3.1-9.9,0.2c-2.3-2.8-3.2-5.9-2.4-8.8
		c0.4-1.4,1.7-2.7,3.7-3.9c1.5-0.8,3.2-1.5,5.3-2.2c0.4-0.1,0.9-0.3,1.4-0.4c1.6-0.5,3.2-1.1,4.9-1.1c0.5,0,0.5,0,0.5,0.7
		c0,0.3,0,0.5,0.1,0.8c0,0.2,0,0.5,0.1,0.7c-0.1,1.2-0.1,2.3-0.1,3.5c0,0.4,0,0.8-0.1,1.2C78,39,77.9,39.5,78,40.1z"/>
	<path class="st0" d="M140.5,43.3c-0.7-2.3-2-4.3-3.9-6c-0.8-0.8-1.8-1.4-3.1-1.9c-0.4-0.2-0.7-0.3-1.1-0.5c-0.7-0.4-1.5-0.7-2.2-1
		c-2.5-0.9-4.2-2.7-4.4-4.8c-0.1-0.9,0.1-2,0.5-3.4c0.2-0.8,0.8-2.3,1.9-2.8c2.2-1,5.6-0.8,7.2,1.2c-0.7,0-1.3,0.4-1.5,1.2
		c-0.4,1.2,0,2.8,1.2,3.3c0.7,0.2,1.3,0.1,1.7-0.4c0.9-1,0.9-3.2,0.5-4.3c-0.8-1.7-2.3-3-4.3-3.6c-2-0.6-4.3-0.3-5.9,0.7
		c-3.4,2.1-4.2,7.2-2.8,10.5c0.7,1.7,2.2,3.2,3.9,4.1c0.2,0.1,0.4,0.2,0.6,0.3c0.6,0.3,1.3,0.7,1.9,0.9c0.9,0.3,1.8,0.6,2.7,1
		c0.3,0.2,0.7,0.4,1,0.6c1.4,0.8,2.7,1.5,3.6,2.9c1,1.7,1.3,3.3,0.9,5.2c-0.5,2.2-2.6,2.7-4.4,2.9c-1.5,0.2-3.3,0.1-5.3-0.1
		c-2-0.2-3.8-1.3-4.7-2.9c-0.4-0.6-0.8-1.8-0.7-2.6c0-0.4,0.3-0.5,0.9-0.6c0.4-0.1,0.9-0.2,1.1-0.7c0.2-0.4,0.2-0.6,0-0.8
		c-0.3-0.4-1.1-0.3-1.9-0.2c-0.7,0.2-1.6,0.4-1.8,1.3c-0.4,1.9,0.5,4.4,1.5,5.6c2.1,2.7,5.8,2.8,8.9,2.8c0.1,0,0.2,0,0.3,0h0.3
		c1.5,0,2.9,0,4.4-0.6c1.8-0.8,3-2.5,3.2-4.6c0-0.2,0-0.5-0.1-0.7C140.8,44.7,140.7,44,140.5,43.3z"/>
	<path class="st0" d="M200.7,37.2c0.4-2,0.7-4.4,0.5-6.8c-0.2-2.7-1.8-5.6-4.1-7.2c-1.3-0.9-2.7-1.5-3.9-1.7c-1.2-0.1-2.3-0.1-3.5,0
		c-2.7,0.2-5.5,2-6.9,4.3c-1.4,2.5-1.4,5-1.4,7.9c-0.1,2.3-0.1,4.5-0.1,6.8c0,0,0,0,0,0c-0.1,0.1-0.1,0.3-0.1,1.3
		c0,0.9,0,1.7,0.2,2.5c0.5,1.8,1.2,3.1,2,4c0.2,0.2,0.3,0.3,0.5,0.5c0.6,0.7,1.3,1.3,2.1,1.8c1.6,0.9,3.4,1.4,4.9,1.4
		c0.1,0,0.1-0.1,0.1-0.1c0.5,0.2,1.3,0,1.7-0.1c0.7-0.1,1.4-0.3,2.1-0.6c1.8-0.6,3-2,4-3.3c1.9-2.6,1.9-5.6,1.8-8.5
		C200.7,38.7,200.7,37.9,200.7,37.2z M199.1,41.3c0.1,1.2-0.1,2.5-0.5,3.8c-0.2,0.7-0.6,1.1-1,1.6c-0.1,0.2-0.3,0.3-0.4,0.5
		c-1.7,2-3.9,3-6.2,2.9c-1.3-0.1-2.5-0.2-3.6-0.9c-1.2-0.7-2-1.4-2.9-2.8c-1.1-1.8-1.2-3.7-1.3-5.8c0-0.3,0-0.6,0-0.9
		c0-2.3,0.1-4.6,0.2-6.8l0-0.1c0-0.4,0-0.9,0-1.3c0-0.9,0-1.8,0.3-2.5c0.3-1.1,0.8-2.3,1.9-3.5c1.1-1.3,3.3-2.4,5.1-2.5
		c0.3,0,0.6,0,0.9,0.1c0.3,0,0.6,0.1,0.9,0.1c0,0,0,0,0,0c0.7,0.1,1.4,0.2,2.1,0.5c1.3,0.6,2.4,1.4,3.4,2.6c1.1,1.8,1.1,3.6,1.1,5.6
		c0,0.7,0,1.5,0,2.3c0,1.1,0,2.3-0.1,3.4C199.1,38.9,199,40.1,199.1,41.3z"/>
</g>
</svg>
