<?xml version="1.0" encoding="utf-8"?>
<!-- Generator: Adobe Illustrator 22.1.0, SVG Export Plug-In . SVG Version: 6.00 Build 0)  -->
<svg version="1.1" xmlns="http://www.w3.org/2000/svg" xmlns:xlink="http://www.w3.org/1999/xlink" x="0px" y="0px"
	 viewBox="0 0 200 62" style="enable-background:new 0 0 200 62;" xml:space="preserve">
<style type="text/css">
	.st0{fill:#FBFBFB;}
</style>
<g id="レイヤー_1">
</g>
<g id="text">
	<g>
		<g>
			<path class="st0" d="M22.7,17.3c0.1-1.9,0-3.8,0-5.7c0-2.2,0.1-4.3-0.1-6.5c-0.1-1.3-0.4-2.5-1.2-3.5c-0.8-1.1-2.2-1.5-3.5-1.5
				c-1.2,0-2.4,0.4-3.5,0.8c-1.2,0.5-2.3,0.8-3.5,1.2C8.4,2.9,6.2,4.7,4.7,6.8c0.1-1,0.5-2.7-0.1-3.6C4.2,2.7,3.6,2.6,3,2.4
				C2.5,2.3,2,2.1,1.5,2C0.9,2,0.6,2.4,0.5,3c0,0.7,0.5,1.1,1.1,1.2c0.6,0.1,1.1,0.2,1.2,0.9C3,5.7,3,6.3,3,6.8
				c0.1,4.6-0.1,9.2,0.1,13.7c0.3,8.1,0,16.1,0.1,24.2c0,2.3-0.1,4.7,0,7c0,1.2,0,2.5-0.1,3.7c-0.1,1.3,0.2,2.7,0,4
				c-1.2-1.6-4.4,0.9-2.6,2.2C1,62,1.7,61.9,2.3,62c0.8,0.1,1.6-0.1,2.1-0.9c0.4-0.7,0.2-1.7,0.2-2.5c0-0.8,0.1-1.6,0.1-2.4
				c0-1.5,0-3,0-4.5c0.1-2.4,0-4.8,0-7.2c0.1-2.7,0-5.4,0-8.1c0-1.7,0.1-3.5,0-5.2c-0.2-1.9,0.1-3.7,0-5.6c2.4,3.6,7.5,5.2,11.5,3.4
				c2.2-1,3.9-2.7,5-4.8c0.6-1,1-2.2,1.3-3.4C22.8,19.6,22.7,18.5,22.7,17.3z M21,15.1c0.1,1.2-0.1,2.4-0.2,3.6
				c-0.1,1.3-0.1,2.5-0.6,3.7c-0.8,2.2-2.8,4.1-4.9,5c-2,0.9-4.7,0.6-6.7-0.4c-2-1.1-3.7-2.9-3.9-5.3c-0.1-2.1-0.2-4.1-0.1-6.1
				c0.1-2.4-0.3-4.7,0.7-6.9c1-2,3-3.7,4.9-4.7c1-0.5,2.1-1,3.2-1.4c1.2-0.5,2.3-1,3.6-0.8c1.6,0.2,2.7,0.8,3.3,2.4
				C20.9,5.3,21,6.6,21,8c0,1.2,0.1,2.5,0.1,3.8C21.1,12.9,20.9,14,21,15.1z"/>
			<path class="st0" d="M81.7,51.3c-0.4-0.3-0.7-0.7-1.1-0.9c-0.5-0.3-1.1-0.2-1.2-0.8c-0.1-0.5,0-1,0-1.5c0-0.5-0.1-1.1-0.1-1.6
				c0-1.6-0.1-3.2,0-4.8c0-2,0-4-0.1-5.9c-0.1-1.6-0.2-3.3-0.2-4.9c0-1-0.1-2-0.1-3c-0.1-1,0-2-0.2-3c-0.4-2.2-2.1-4.1-4.3-4.6
				c-3.6-0.8-7.4,2.1-9.2,5.1c-0.3,0.5-0.7,1.5,0.2,1.6c1,0.1,1.7-1.2,2.3-1.9c1-1.2,2.4-2.5,3.9-3.1c2.2-0.9,4.3,0.1,5.3,2.2
				c0.4,0.9,0.6,1.8,0.7,2.7c0,0.5,0.1,1.4-0.1,1.9c-0.2,0.6-1,0.5-1.5,0.6c-1,0.2-2,0.6-3,1c-1.9,0.8-3.9,1.4-5.8,2.2
				c-1.6,0.6-3.1,1.2-4.5,2.2c-0.8,0.6-1.6,1.4-2.1,2.3c-0.6,1-0.6,2.1-0.8,3.2c-0.3,2,0.3,4.1,1.1,5.9c0.4,1,1.1,1.7,1.8,2.5
				c0.7,0.8,1.5,1.5,2.5,2c3.8,1.7,8.4,0.3,11.2-2.7c0.5-0.6,1.1-1.1,1.5-1.8c-0.1,1-0.1,2.1-0.1,3.1c0,0.7-0.1,1.5,0.7,1.8
				c0.5,0.2,1,0.2,1.5,0.5c0.5,0.3,0.9,0.7,1.4,0.9c0.5,0.2,1.2,0.3,1.7,0.5C82.6,52.4,82.2,51.8,81.7,51.3z M77.7,37.1
				c0,1-0.2,1.9-0.1,2.9c0,1,0.1,2-0.2,3c-0.5,1.9-1.7,3.6-3.2,4.7c-2.9,2.1-7.5,3.3-10.1,0.2c-2.1-2.5-3.3-5.7-2.4-8.9
				c0.5-1.8,2.2-3.1,3.8-4c1.7-0.9,3.5-1.6,5.3-2.2c2-0.6,4.1-1.5,6.3-1.5c0.6,0,0.6,0.2,0.6,0.8c0,0.5,0.1,1,0.1,1.5
				C77.7,34.8,77.7,35.9,77.7,37.1z"/>
			<path class="st0" d="M139.5,43.2c-0.7-2.3-2-4.3-3.8-5.9c-0.9-0.8-1.9-1.4-3-1.9c-1.1-0.5-2.2-1.1-3.3-1.5
				c-2.2-0.8-4.2-2.5-4.5-4.9c-0.1-1.1,0.2-2.4,0.5-3.4c0.3-1.1,0.9-2.4,2-2.9c2.4-1.1,6-0.8,7.6,1.5c-2.2-0.6-2.5,3.4-0.6,4.1
				c2.3,0.8,2.6-3,2-4.4c-1.6-3.6-6.6-4.9-9.9-2.8c-3.2,2-4.1,7-2.7,10.3c0.7,1.7,2.2,3.2,3.8,4c0.8,0.4,1.7,0.9,2.5,1.2
				c0.9,0.3,1.8,0.6,2.7,1c1.7,1,3.5,1.7,4.6,3.5c1,1.7,1.3,3.4,0.9,5.3c-0.5,2.2-2.5,2.8-4.5,3c-1.7,0.2-3.6,0.1-5.3-0.1
				c-1.9-0.2-3.8-1.3-4.8-3c-0.4-0.6-0.8-1.9-0.7-2.7c0.1-0.9,1.6-0.5,2-1.3c0.6-1.2-1.1-0.9-1.7-0.8c-0.8,0.2-1.5,0.4-1.7,1.2
				c-0.4,1.8,0.4,4.2,1.5,5.5c2.2,2.8,6.2,2.7,9.4,2.7c1.5,0,2.9,0,4.3-0.6c1.8-0.8,2.9-2.5,3.1-4.4
				C139.8,45.1,139.8,44.1,139.5,43.2z"/>
			<path class="st0" d="M199.9,30.3c-0.2-2.7-1.8-5.5-4-7.1c-1.1-0.8-2.5-1.5-3.8-1.7c-1.2-0.1-2.3-0.1-3.5,0
				c-2.6,0.2-5.4,1.9-6.7,4.2c-1.4,2.5-1.4,5-1.4,7.8c-0.1,2.3-0.1,4.5-0.1,6.8c0.2,0,0.3,0,0.5,0c-0.1,0-0.4,0.1-0.5,0.1
				c-0.1,0.1-0.1,1-0.1,1.2c0,0.9,0,1.7,0.2,2.5c0.4,1.4,1,2.9,2,3.9c0.8,0.8,1.6,1.7,2.5,2.3c1.4,0.8,3.2,1.4,4.8,1.4
				c0-0.1,0-0.2,0-0.4c0,0.6,1.4,0.3,1.8,0.2c0.7-0.1,1.4-0.3,2.1-0.6c1.7-0.6,2.9-1.9,3.9-3.2c2.4-3.2,1.7-7,1.8-10.7
				C199.8,34.7,200.1,32.5,199.9,30.3z M198.2,34.2c0.1,2.3-0.2,4.6-0.1,6.9c0.1,1.3-0.1,2.6-0.5,3.9c-0.3,0.9-0.9,1.5-1.4,2.2
				c-1.6,1.9-3.8,3.1-6.3,2.9c-1.3-0.1-2.5-0.2-3.6-0.9c-1.3-0.8-2.1-1.5-2.9-2.8c-1.3-2.1-1.2-4.3-1.3-6.7c0-2.3,0.1-4.6,0.2-6.9
				c0.1-1.3-0.1-2.7,0.3-3.9c0.4-1.3,0.9-2.4,1.9-3.5c1.2-1.4,3.4-2.4,5.2-2.5c0.6,0,1.2,0.2,1.8,0.2c0.8,0.1,1.4,0.2,2.1,0.5
				c1.4,0.6,2.5,1.5,3.5,2.7C198.7,28.8,198,31.5,198.2,34.2z"/>
		</g>
	</g>
</g>
</svg>
